<?xml version="1.0" encoding="utf-8"?>
<!-- Generator: Adobe Illustrator 25.3.0, SVG Export Plug-In . SVG Version: 6.00 Build 0)  -->
<svg version="1.1" id="Capa_1" xmlns="http://www.w3.org/2000/svg" xmlns:xlink="http://www.w3.org/1999/xlink" x="0px" y="0px"
	 viewBox="0 0 390.65 253.07" style="enable-background:new 0 0 390.65 253.07;" xml:space="preserve">
<style type="text/css">
	.st0{fill:#EBEBFF;}
	.st1{fill:#D6D7F4;}
	.st2{fill:#3D5AC4;}
	.st3{fill:#5571E9;}
	.st4{fill:#27429C;}
	.st5{fill:#312C76;}
	.st6{fill:#151247;}
	.st7{opacity:0.16;fill:#5571E9;}
	.st8{clip-path:url(#XMLID_5_);fill:#FFFFFF;}
	.st9{fill:#14103D;}
	.st10{fill:#EB8175;}
	.st11{fill:#231C61;}
	.st12{fill:#E1AD9D;}
	.st13{fill:#C8C6F2;}
	.st14{fill:#D8D7FD;}
	.st15{fill:#091218;}
	.st16{fill:#1B2934;}
	.st17{fill:#FFFFFF;}
	.st18{fill:#E16C5F;}
	.st19{clip-path:url(#XMLID_6_);fill:#231C61;}
	.st20{fill:#F5D100;}
	.st21{fill:none;stroke:#F1AB00;stroke-width:0.2802;stroke-miterlimit:10;}
	.st22{fill:none;stroke:#FFFFFF;stroke-width:1.1206;stroke-linecap:round;stroke-linejoin:round;stroke-miterlimit:10;}
	.st23{fill:#334FBE;}
	.st24{fill:#4265D1;}
	.st25{clip-path:url(#XMLID_7_);fill:#231C61;}
	.st26{fill:none;stroke:#F1AB00;stroke-width:0.2834;stroke-miterlimit:10;}
	.st27{fill:none;stroke:#FFFFFF;stroke-width:1.1334;stroke-linecap:round;stroke-linejoin:round;stroke-miterlimit:10;}
	.st28{fill:none;stroke:#3D5AC4;stroke-width:2.6489;stroke-miterlimit:10;}
	.st29{fill:none;stroke:#5571E9;stroke-width:2.6489;stroke-miterlimit:10;}
	.st30{fill:#2F4DAB;}
	.st31{fill:none;stroke:#231C61;stroke-width:2.1624;stroke-miterlimit:10;}
	.st32{fill:none;stroke:#231C61;stroke-width:1.1138;stroke-miterlimit:10;}
	.st33{fill:#373482;}
	.st34{fill:none;stroke:#5571E9;stroke-width:2.6489;stroke-linecap:round;stroke-linejoin:round;stroke-miterlimit:10;}
	.st35{clip-path:url(#XMLID_9_);fill:#FAFAFA;}
	.st36{fill:#E8C400;}
	.st37{clip-path:url(#XMLID_10_);fill:#FAFAFA;}
	.st38{fill:none;stroke:#3D5AC4;stroke-width:1.1366;stroke-linecap:round;stroke-linejoin:round;stroke-miterlimit:10;}
	.st39{fill:none;stroke:#EBEBFF;stroke-width:1.1366;stroke-linecap:round;stroke-linejoin:round;stroke-miterlimit:10;}
</style>
<g>
	<g>
		<path class="st0" d="M369.51,171.13c3.73-12.07,4.6-24.92,1.92-37.27c-4.18-19.32-17.64-42.71-56.48-52.8
			C241.42,61.95,215.88,6.07,147.1,23.87c0,0-36.91,6.71-54.38,67.79c-17.47,61.08-85.92,62.12-62.36,115.3
			c3.85,8.69,13.65,18.64,28.95,26.19l279.12,0C357.7,209.98,363.7,189.93,369.51,171.13z"/>
	</g>
	<g>
		<path class="st1" d="M303.68,127.45h-10.47V116c0-5.75-4-10.55-9.37-11.8V89.99H280v13.94c-6.18,0.56-11.02,5.74-11.02,12.07
			v11.79h-10.41v13.13h-0.7v24.41l-18.92-0.14v-29.17h-21.68v21.38h-15.21v20.77h-18.39v54.97h61.09v-0.01h13.12v0.01h76.6v-69.32
			h-30.8L303.68,127.45z"/>
		<polygon class="st1" points="87.72,157.66 87.72,130.33 97.97,130.33 97.97,115.72 101.82,115.72 101.82,130.33 111.26,130.33 
			111.26,157.66 121.85,157.66 121.85,174.03 138.72,174.03 138.72,118.26 173.96,118.26 173.96,233.13 151,233.13 141.11,233.13 
			116.22,233.13 104.72,233.13 74.69,233.13 74.69,157.66 		"/>
	</g>
</g>
<g>
	<g>
		<g>
			<path class="st2" d="M280.21,232.86l-160.58,0.13c-6.08,0-11.02-4.92-11.02-11l0,0l182.61-0.14l0,0
				C291.22,227.92,286.29,232.85,280.21,232.86z"/>
			<path class="st3" d="M280.21,229.06l-160.58,0.13c-4.75,0-8.78-3-10.33-7.21l-0.68,0c0,6.08,4.94,11.01,11.02,11l160.58-0.13
				c6.08,0,11.01-4.94,11-11.02l-0.68,0C288.99,226.05,284.96,229.06,280.21,229.06z"/>
			<path class="st4" d="M210.29,225.58l-20.75,0.02c-2.04,0-3.69-1.65-3.69-3.68l0,0l28.12-0.02l0,0
				C213.97,223.93,212.32,225.58,210.29,225.58z"/>
		</g>
		<g>
			<path class="st3" d="M281.82,221.84L118,221.97l-0.08-98.88c0-5.67,4.59-10.27,10.26-10.28l143.27-0.11
				c5.67,0,10.27,4.59,10.28,10.26L281.82,221.84z"/>
			<rect x="126.49" y="121.3" class="st5" width="146.75" height="92.06"/>
			<rect x="126.53" y="204.56" class="st6" width="146.75" height="8.8"/>
			<rect x="126.46" y="121.3" class="st6" width="146.75" height="4.37"/>
			<g>
				<polygon class="st7" points="175.4,121.32 126.5,170.3 126.53,213.42 126.63,213.42 218.62,121.29 				"/>
				<polygon class="st7" points="145.48,213.41 167.15,213.39 259.14,121.26 237.47,121.28 				"/>
				<polygon class="st7" points="256.02,213.32 273.27,196.04 273.24,163.36 221.47,213.34 				"/>
			</g>
		</g>
	</g>
	<g>
		<defs>
			<rect id="XMLID_8_" x="117.93" y="160.62" width="163.89" height="18.09"/>
		</defs>
		<use xlink:href="#XMLID_8_"  style="overflow:visible;fill:#F5D100;"/>
		<clipPath id="XMLID_5_">
			<use xlink:href="#XMLID_8_"  style="overflow:visible;"/>
		</clipPath>
		<polygon class="st8" points="138.37,185.06 124.27,185.06 136.41,157.3 150.51,157.3 		"/>
		<polygon class="st8" points="168.45,185.06 154.34,185.06 166.48,157.3 180.58,157.3 		"/>
		<polygon class="st8" points="198.52,185.06 184.42,185.06 196.55,157.3 210.65,157.3 		"/>
		<polygon class="st8" points="228.59,185.06 214.49,185.06 226.63,157.3 240.73,157.3 		"/>
		<polygon class="st8" points="258.66,185.06 244.56,185.06 256.7,157.3 270.8,157.3 		"/>
	</g>
</g>
<g>
	<g>
		<g>
			<g>
				<g>
					<path class="st9" d="M104.77,129.39l-3.2,0.12l-1.88-0.59c-0.86-0.27-1.8,0.05-2.31,0.8l-0.24,0.35l9.37,5.17l1.81-3.88
						L104.77,129.39z"/>
					<path class="st9" d="M106.52,135.32l-9.44-5.21l0.33-0.6c0.07-0.12,0.21-0.16,0.33-0.1l9.23,5.1L106.52,135.32"/>
				</g>
				<polygon class="st10" points="108.32,131.36 110.8,127.08 108.32,122.66 104.77,129.39 				"/>
			</g>
			<path class="st9" d="M127.71,106.73c0,0-13.35-3.83-14.63-0.23c-1.29,3.6-9.07,19.55-9.07,19.55l5.81,3.03l8.72-15.14l11.73-1.02
				L127.71,106.73z"/>
		</g>
		<g>
			<g>
				<g>
					<path class="st9" d="M116.86,134.25l-2.61,1.66l-1.93,0.39c-0.89,0.18-1.55,0.92-1.63,1.82l-0.04,0.42l10.7-0.02l-0.3-4.28
						L116.86,134.25z"/>
					<path class="st9" d="M121.4,138.59l-10.78,0.02l0-0.68c0-0.13,0.11-0.24,0.24-0.24l10.54-0.02L121.4,138.59"/>
				</g>
				<polygon class="st10" points="121.06,134.25 121.4,127.08 117.14,126.59 116.86,134.25 				"/>
			</g>
			<path class="st11" d="M129.51,106.11l-12.58,0.57c0,0-1.81,0.1-1.69,4.33c0.12,4.24,0.11,21.28,0.11,21.28l6.04,0.21l1.16-17.85
				l12.59-0.16c2.65-0.03,5.12-1.55,6.17-3.99c0.4-0.93,0.59-1.98,0.35-3.08L129.51,106.11z"/>
		</g>
	</g>
	<g>
		<g>
			<g>
				<path class="st12" d="M117.57,103.58c0,1.19-0.81,1.37-2,1.38c-1.19,0-2.32-0.17-2.32-1.37c0-1.19,0.96-2.16,2.16-2.17
					C116.6,101.42,117.57,102.38,117.57,103.58z"/>
				<path class="st12" d="M119.09,104.8l-2.5,0.01c-0.65,0-1.19-0.53-1.19-1.18l0,0c0-0.65,0.53-1.19,1.18-1.19l2.5-0.01
					c0.65,0,1.19,0.53,1.19,1.18l0,0C120.28,104.26,119.75,104.8,119.09,104.8z"/>
			</g>
			<path class="st13" d="M119,105.05l-0.83-4.09l10.27-1.12l2.05-12c0.21-1.09,1.79-2.44,2.88-2.24l-0.31-0.09
				c1.09,0.21,2.09,1.47,1.89,2.56l-2,14.36c-0.15,0.77-0.73,1.39-1.5,1.58L119,105.05z"/>
		</g>
		<path class="st14" d="M139.51,85.87c0.21,0.02,0.42,0.06,0.62,0.14l0.1,0.04c1.76,0.69,2.96,2.58,3.04,4.35l-1.61,17.03
			c-10.64-0.09-12.15-1.32-12.15-1.32l0.85-17.42c0.13-1.64,0.88-3.19,2.75-3.34l0,0L139.51,85.87z"/>
		<g>
			<g>
				<g>
					<path class="st10" d="M127.79,104.92c0.08,1.19-0.71,1.42-1.9,1.51c-1.19,0.08-2.33-0.02-2.41-1.21
						c-0.08-1.19,0.82-2.22,2.01-2.3C126.68,102.82,127.71,103.72,127.79,104.92z"/>
					<path class="st10" d="M129.39,106.03l-2.49,0.17c-0.65,0.04-1.22-0.45-1.27-1.1l0,0c-0.04-0.65,0.45-1.22,1.1-1.27l2.49-0.17
						c0.65-0.04,1.22,0.45,1.26,1.1l0,0C130.54,105.42,130.04,105.99,129.39,106.03z"/>
				</g>
				<path class="st14" d="M129.31,106.29l-1.1-4.02l11.19-1.8l-0.64-10.41c0.13-1.1,1.34-2.34,2.44-2.21l0,0
					c1.1,0.13,2.19,1.33,2.05,2.43l0.81,12.47c-0.1,0.78-0.64,1.44-1.39,1.67L129.31,106.29z"/>
			</g>
		</g>
		<g>
			<path class="st15" d="M109.95,92.46l12.21,1.15c0.4,0.04,0.72,0.35,0.77,0.75l1.28,11c0.06,0.54-0.39,1-0.93,0.95l-12.42-1.17
				c-0.41-0.04-0.73-0.36-0.77-0.77l-1.08-10.99C108.96,92.86,109.41,92.41,109.95,92.46z"/>
			<path class="st16" d="M109.24,92.4l12.21,1.15c0.4,0.04,0.72,0.35,0.77,0.75l1.28,11.01c0.06,0.54-0.39,1-0.93,0.95l-12.42-1.17
				c-0.41-0.04-0.73-0.36-0.77-0.77l-1.08-10.99C108.26,92.8,108.71,92.35,109.24,92.4z"/>
			<path class="st15" d="M123.87,105.45l8.34,0.79c0.25,0.02,0.44,0.25,0.42,0.5l0,0c-0.02,0.25-0.25,0.44-0.5,0.42l-8.85-0.8
				L123.87,105.45z"/>
			<path class="st17" d="M116.24,99.07c-0.07,0.73-0.72,1.27-1.46,1.21c-0.73-0.07-1.27-0.72-1.21-1.46
				c0.07-0.73,0.72-1.27,1.46-1.21C115.77,97.69,116.31,98.34,116.24,99.07z"/>
		</g>
		<polygon class="st13" points="138.38,92.46 138.65,100.28 128.21,102.27 137.41,99.39 		"/>
	</g>
	<g>
		<g>
			<path class="st10" d="M132.84,84.83l0.7,1.87c0.25,0.68,0.88,1.14,1.6,1.19l0,0c1.37,0.09,2.35-1.29,1.81-2.55l-1.22-2.88
				L132.84,84.83z"/>
			<path class="st18" d="M133.46,86.5c0,0,3.44-0.65,2.93-3.66c-0.51-3.01-3.74-0.66-3.74-0.66l0.32,3L133.46,86.5z"/>
			<g>
				<g>
					<defs>
						<path id="XMLID_1_" d="M128.15,77.5c-1.26,2.7-0.1,5.91,2.6,7.17c2.7,1.26,5.91,0.1,7.17-2.6c1.26-2.7,0.1-5.91-2.6-7.17
							C132.63,73.64,129.42,74.8,128.15,77.5z"/>
					</defs>
					<use xlink:href="#XMLID_1_"  style="overflow:visible;fill:#EB8175;"/>
					<clipPath id="XMLID_6_">
						<use xlink:href="#XMLID_1_"  style="overflow:visible;"/>
					</clipPath>
					<path class="st19" d="M135.04,80.85c0,0-0.85,4.32,2.33,4.42c3.18,0.09,1.45-8.11,1.45-8.11l-5.03-5.06l-7.69,1.89l0.76,4.97
						c0,0,1.22,0.65,7.84-0.44L135.04,80.85z"/>
					<polygon class="st19" points="131.9,77.47 134.43,81.17 136.61,78.76 					"/>
				</g>
				<path class="st10" d="M134.19,79.85c-0.36,0.76-0.03,1.67,0.74,2.03c0.76,0.36,1.67,0.03,2.03-0.74
					c0.36-0.76,0.03-1.67-0.74-2.03C135.46,78.76,134.55,79.08,134.19,79.85z"/>
			</g>
		</g>
		<g>
			<path class="st20" d="M127.1,78.89c0,0-1.17-4.25,1.59-6.88c2.27-2.17,5.99-2.03,8.01,0.38c0.95,1.13,1.71,2.84,1.78,5.4
				L127.1,78.89z"/>
			<path class="st21" d="M127.69,78.82l-0.03-2.65c-0.01-0.67,0.52-1.23,1.19-1.26l0,0c0.66-0.03,1.24,0.46,1.3,1.12l0.27,2.65"/>
			<line class="st22" x1="138.48" y1="77.78" x2="126.1" y2="78.97"/>
		</g>
	</g>
</g>
<g>
	<g>
		<g>
			<polygon class="st10" points="251.2,221.23 253.98,223.92 250.81,225.63 248.1,222.97 			"/>
			<path class="st9" d="M231.67,201.15l1.85,8.21c0.37,1.64,1.09,3.22,2.11,4.67L247.84,225l4.83-3.93l-10.42-11.04l-3.82-14.56
				L231.67,201.15z"/>
			<g>
				<path class="st9" d="M250.72,225.55l-1,3.19l-1.14,1.59c-0.53,0.73-0.51,1.72,0.05,2.43l0.26,0.33l7.79-7.26l-3.11-2.91
					L250.72,225.55z"/>
				<polyline class="st9" points="256.75,225.85 248.9,233.17 248.27,232.49 256.12,225.18 256.75,225.85 				"/>
			</g>
		</g>
		<g>
			<polygon class="st10" points="224.51,226.23 223.47,229.7 219.89,228.74 220.94,225.33 			"/>
			<path class="st11" d="M229.3,192l-10.01,33.85l6.32,1.58l5.64-16.97l6.92-11.1c0.35-0.5,0.7-1.01,0.99-1.55
				c0.55-1.02,0.8-2.12,0.79-3.23l-0.02-2.2L229.3,192z"/>
			<g>
				<path class="st9" d="M220.1,228.41l-3.16,1.17l-1.97,0.07c-0.91,0.03-1.68,0.66-1.91,1.53l-0.11,0.41l10.58,1.74l0.41-4.28
					L220.1,228.41z"/>
				<polyline class="st9" points="223.57,233.41 212.9,231.65 213.05,230.74 223.72,232.49 223.57,233.41 				"/>
			</g>
		</g>
	</g>
	<g>
		<g>
			<g>
				<polygon class="st23" points="215.33,157.61 211.28,163.93 213.22,165.32 217.41,158.64 				"/>
				<path class="st24" d="M210.07,147.15c0,0,1.87,7.83,11.35,10.91c0.27,0.09,0.48,0.32,0.52,0.6c0.12,0.91,0.12,2.87-1.97,3.45
					c-0.2,0.05-0.42,0.01-0.59-0.09c-1.45-0.91-8.58-5.07-15.5-3.87L210.07,147.15z"/>
				<path class="st23" d="M210.07,147.15c0,0-1.74,7.81-6.2,10.99C203.87,158.14,204.5,151.29,210.07,147.15z"/>
			</g>
			<g>
				<g>
					<g>
						<path class="st10" d="M209.96,163.52c-0.29,1.44,0.89,3.19,2.33,3.48c1.44,0.29,2.84-0.63,3.13-2.07
							c0.29-1.44-0.89-3.19-2.33-3.48C211.66,161.16,210.25,162.08,209.96,163.52z"/>
					</g>
					<polyline class="st10" points="217.56,167.74 214.76,164.8 212.93,167.06 217.56,170.46 					"/>
				</g>
				<path class="st13" d="M217.12,165.03l-2.97,4.41l8.11,7.42c0.5,0.14,1.01,0.19,1.52,0.15l10.71-1.39
					c1.69-0.08,2.99-1.51,2.91-3.2l0,0c-0.08-1.69,0.24-4.13-1.44-4.05l-12.44,2.56L217.12,165.03z"/>
			</g>
		</g>
		<g>
			<g>
				<path class="st14" d="M241.13,175.14c0.29-2.34-0.78-4.65-2.76-5.93c-0.89-0.57-1.78-0.96-2.41-0.85
					c-2.14,0.36-4.33,1.33-5.27,4.21c-1.6,4.9-2.05,19.39-2.05,19.39l11.48,0.39L241.13,175.14z"/>
			</g>
			<polygon class="st13" points="236.9,175.51 240.35,188.19 241.04,177.43 			"/>
		</g>
		<g>
			<g>
				<g>
					<path class="st10" d="M250.96,200.53c1.08-0.99,1.16-3.1,0.18-4.18c-0.99-1.08-2.67-1.16-3.75-0.18
						c-1.09,0.99-1.16,3.1-0.18,4.18C248.2,201.44,249.88,201.52,250.96,200.53z"/>
				</g>
				<polyline class="st10" points="245.75,191.5 247.85,196.66 250.66,195.93 248.92,190.44 				"/>
			</g>
			<path class="st14" d="M245.89,195.48l5.75-1.26l-3.9-13.33c-0.14-0.49-0.38-0.96-0.69-1.37l-7.16-8.91
				c-0.97-1.39-2.6-1.14-3.98-0.17l0,0c-1.39,0.97-1.72,2.87-0.76,4.26l6.89,8.29L245.89,195.48z"/>
		</g>
	</g>
	<g>
		<g>
			<path class="st10" d="M233.27,166.62l0.22,2.01c0.08,0.73,0.57,1.34,1.27,1.56l0,0c1.32,0.43,2.62-0.68,2.41-2.05l-0.48-3.13
				L233.27,166.62z"/>
			<path class="st18" d="M233.47,168.41c0,0,3.54-0.12,3.8-3.19c0.25-3.07-3.51-1.24-3.51-1.24l-0.44,3.02L233.47,168.41z"/>
			<g>
				<g>
					<defs>
						<path id="XMLID_11_" d="M230.51,158.27c-1.91,2.33-1.57,5.77,0.76,7.68c2.33,1.91,5.77,1.57,7.68-0.76
							c1.91-2.33,1.57-5.77-0.76-7.68C235.85,155.6,232.42,155.94,230.51,158.27z"/>
					</defs>
					<use xlink:href="#XMLID_11_"  style="overflow:visible;fill:#EB8175;"/>
					<clipPath id="XMLID_7_">
						<use xlink:href="#XMLID_11_"  style="overflow:visible;"/>
					</clipPath>
					<path class="st25" d="M236.42,163.27c0,0-1.91,4.03,1.18,4.91c3.09,0.88,3.44-7.59,3.44-7.59l-3.67-6.21l-8.01-0.06l-0.49,5.07
						c0,0,1.04,0.94,7.79,1.52L236.42,163.27z"/>
					<polygon class="st25" points="234.19,159.17 235.75,163.43 238.48,161.61 					"/>
				</g>
				<path class="st10" d="M235.84,162.08c-0.54,0.66-0.44,1.63,0.22,2.17c0.66,0.54,1.63,0.44,2.17-0.22
					c0.54-0.66,0.44-1.63-0.22-2.17C237.35,161.32,236.38,161.42,235.84,162.08z"/>
			</g>
		</g>
		<g>
			<path class="st20" d="M229.1,159.84c0,0-0.27-4.45,3.01-6.48c2.7-1.67,6.35-0.76,7.85,2.05c0.7,1.32,1.1,3.16,0.64,5.71
				L229.1,159.84z"/>
			<path class="st26" d="M229.69,159.89l0.52-2.63c0.13-0.67,0.77-1.11,1.44-1l0,0c0.66,0.11,1.13,0.72,1.05,1.38l-0.29,2.68"/>
			<line class="st27" x1="240.59" y1="161.11" x2="228.09" y2="159.71"/>
		</g>
	</g>
</g>
<g>
	<g>
		<line class="st28" x1="316.89" y1="193.47" x2="303.96" y2="206.22"/>
		<line class="st28" x1="316.89" y1="179.84" x2="303.96" y2="192.59"/>
		<line class="st28" x1="316.89" y1="166.22" x2="303.96" y2="178.97"/>
		<line class="st28" x1="316.89" y1="152.59" x2="303.96" y2="165.34"/>
		<line class="st28" x1="316.89" y1="138.96" x2="303.96" y2="151.71"/>
		<line class="st28" x1="316.89" y1="125.34" x2="303.96" y2="138.09"/>
		<line class="st28" x1="316.89" y1="111.71" x2="303.96" y2="124.46"/>
		<line class="st28" x1="316.89" y1="98.09" x2="303.96" y2="110.84"/>
		<line class="st28" x1="316.89" y1="84.46" x2="303.96" y2="97.21"/>
		<line class="st28" x1="316.89" y1="70.83" x2="303.96" y2="83.59"/>
		<line class="st28" x1="316.89" y1="57.21" x2="303.96" y2="69.96"/>
		<line class="st28" x1="303.96" y1="192.59" x2="316.89" y2="192.59"/>
		<line class="st28" x1="303.96" y1="178.97" x2="316.89" y2="178.97"/>
		<line class="st28" x1="303.96" y1="165.34" x2="316.89" y2="165.34"/>
		<line class="st28" x1="303.96" y1="151.71" x2="316.89" y2="151.71"/>
		<line class="st28" x1="303.96" y1="138.09" x2="316.89" y2="138.09"/>
		<line class="st28" x1="303.96" y1="124.46" x2="316.89" y2="124.46"/>
		<line class="st28" x1="303.96" y1="110.84" x2="316.89" y2="110.84"/>
		<line class="st28" x1="303.96" y1="97.21" x2="316.89" y2="97.21"/>
		<line class="st28" x1="303.96" y1="83.59" x2="316.89" y2="83.59"/>
		<line class="st28" x1="303.96" y1="69.96" x2="316.89" y2="69.96"/>
		<line class="st29" x1="303.96" y1="209.91" x2="303.96" y2="59.39"/>
		<line class="st29" x1="316.89" y1="209.91" x2="316.89" y2="59.39"/>
		<rect x="297.29" y="206.22" class="st11" width="25.76" height="26.76"/>
	</g>
	<g>
		<g>
			<path class="st2" d="M316.93,59.39h-13.46c-2.38,0-4.3-1.93-4.3-4.3V38.2c0-2.38,1.93-4.3,4.3-4.3h13.46c2.38,0,4.3,1.93,4.3,4.3
				v16.89C321.23,57.46,319.3,59.39,316.93,59.39z"/>
			<path class="st30" d="M309.84,51.97h-8.67V40.05h8.67c1.8,0,3.26,1.46,3.26,3.26v5.41C313.1,50.51,311.64,51.97,309.84,51.97z"/>
		</g>
		<g>
			<g>
				<line class="st31" x1="218.62" y1="60.78" x2="228.97" y2="90.84"/>
				<line class="st31" x1="211.43" y1="57.21" x2="191.25" y2="84.46"/>
				<g>
					<path class="st20" d="M217.45,70.58l20.85,27.26c2.29,3,1.72,7.29-1.28,9.59l-27.26,20.85c-3,2.29-7.29,1.72-9.59-1.28
						l-20.85-27.26c-2.29-3-1.72-7.29,1.28-9.59l27.26-20.85C210.87,67.01,215.16,67.58,217.45,70.58z"/>
					<path class="st32" d="M215.88,75.71l17.06,22.31c1.88,2.45,1.41,5.97-1.05,7.84l-22.31,17.06c-2.45,1.88-5.97,1.41-7.84-1.05
						l-17.06-22.31c-1.88-2.45-1.41-5.97,1.05-7.84l22.31-17.06C210.49,72.79,214.01,73.25,215.88,75.71z"/>
					<g>
						<path class="st11" d="M210.58,108.96c-0.54,4.05-6.68,3.23-6.14-0.82C204.98,104.06,211.13,104.88,210.58,108.96z
							 M213.22,86.35l-2.41,17.01l-5.17-0.69c0.76-5.72,1.4-11.29,2.17-17.05L213.22,86.35z"/>
					</g>
				</g>
			</g>
			<g>
				<g>
					<circle class="st11" cx="215.67" cy="54.66" r="8.65"/>
					<path class="st33" d="M221.79,54.66c0,3.38-2.74,6.12-6.12,6.12c-3.38,0-6.12-2.74-6.12-6.12c0-3.38,2.74-6.12,6.12-6.12
						C219.05,48.55,221.79,51.28,221.79,54.66z"/>
				</g>
				<g>
					<line class="st28" x1="249.59" y1="15.57" x2="249.59" y2="33.9"/>
					<line class="st28" x1="233.15" y1="15.57" x2="233.15" y2="33.9"/>
					<line class="st28" x1="265.98" y1="15.57" x2="265.98" y2="33.9"/>
					<line class="st28" x1="284.19" y1="15.57" x2="284.19" y2="33.9"/>
					<line class="st28" x1="301.17" y1="15.57" x2="301.17" y2="33.9"/>
					<line class="st28" x1="318.79" y1="15.57" x2="318.79" y2="33.9"/>
					<line class="st28" x1="336.08" y1="15.57" x2="336.08" y2="33.9"/>
					<line class="st28" x1="232.29" y1="33.9" x2="249.59" y2="15.57"/>
					<line class="st28" x1="249.59" y1="33.9" x2="266.89" y2="15.57"/>
					<line class="st28" x1="266.89" y1="33.9" x2="284.19" y2="15.57"/>
					<line class="st28" x1="284.19" y1="33.9" x2="301.49" y2="15.57"/>
					<line class="st28" x1="301.49" y1="33.9" x2="318.79" y2="15.57"/>
					<line class="st28" x1="318.79" y1="33.9" x2="336.08" y2="15.57"/>
					<polygon class="st34" points="215.67,33.9 356.71,33.9 337.72,15.57 230.26,15.57 					"/>
					<line class="st34" x1="215.67" y1="33.9" x2="215.67" y2="54.66"/>
				</g>
			</g>
		</g>
	</g>
</g>
<g>
	<g>
		<g>
			<defs>
				<path id="XMLID_4_" d="M141.11,230.5l9.87-25.52c0.47-1.22,2.19-1.22,2.66,0l9.87,25.52H141.11z"/>
			</defs>
			<use xlink:href="#XMLID_4_"  style="overflow:visible;fill:#F5D100;"/>
			<clipPath id="XMLID_9_">
				<use xlink:href="#XMLID_4_"  style="overflow:visible;"/>
			</clipPath>
			<rect x="143.39" y="210.47" class="st35" width="17.53" height="5.42"/>
			<rect x="142.44" y="220.71" class="st35" width="19.83" height="5.42"/>
		</g>
		<rect x="139.3" y="230.5" class="st36" width="26.13" height="2.15"/>
	</g>
	<g>
		<g>
			<defs>
				<path id="XMLID_3_" d="M284.46,230.58l9.87-25.52c0.47-1.22,2.19-1.22,2.66,0l9.87,25.52H284.46z"/>
			</defs>
			<use xlink:href="#XMLID_3_"  style="overflow:visible;fill:#F5D100;"/>
			<clipPath id="XMLID_10_">
				<use xlink:href="#XMLID_3_"  style="overflow:visible;"/>
			</clipPath>
			<rect x="286.75" y="210.55" class="st37" width="17.53" height="5.42"/>
			<rect x="285.79" y="220.79" class="st37" width="19.83" height="5.42"/>
		</g>
		<rect x="282.66" y="230.58" class="st36" width="26.13" height="2.15"/>
	</g>
</g>
<g>
	<g>
		
			<ellipse transform="matrix(0.1473 -0.9891 0.9891 0.1473 -111.2081 246.7146)" class="st3" cx="87.49" cy="187.86" rx="20.5" ry="20.5"/>
		<g>
			<line class="st38" x1="87.49" y1="180.55" x2="87.49" y2="232.65"/>
			<line class="st38" x1="79.51" y1="181.61" x2="87.49" y2="190.55"/>
			<path class="st38" d="M94.56,190.06c-0.57,0.57-7.07,7.34-7.07,7.34"/>
		</g>
	</g>
	<line class="st39" x1="25.77" y1="233.16" x2="369.68" y2="233.16"/>
</g>
</svg>
