<?xml version="1.0" encoding="utf-8"?>
<!-- Generator: Adobe Illustrator 25.3.0, SVG Export Plug-In . SVG Version: 6.00 Build 0)  -->
<svg version="1.1" id="Capa_1" xmlns="http://www.w3.org/2000/svg" xmlns:xlink="http://www.w3.org/1999/xlink" x="0px" y="0px"
	 viewBox="0 0 200 200" style="enable-background:new 0 0 200 200;" xml:space="preserve">
<style type="text/css">
	.st0{fill:#7439D3;}
	.st1{fill:#EFEFED;}
</style>
<path class="st0" d="M100,200L100,200C44.77,200,0,155.23,0,100v0C0,44.77,44.77,0,100,0h0c55.23,0,100,44.77,100,100v0
	C200,155.23,155.23,200,100,200z"/>
<g>
	<g>
		<path class="st1" d="M151.8,48.2v72.86c0,16.95-13.79,30.74-30.74,30.74H48.2V48.2H151.8 M162.16,37.84H37.84v124.31h83.22
			c22.7,0,41.09-18.4,41.09-41.09V37.84L162.16,37.84z"/>
		<path class="st1" d="M68.92,131.08V68.92h72.51v0c0,5.72-4.64,10.36-10.36,10.36h-20.72v41.44c0,5.72-4.64,10.36-10.36,10.36h0
			v-51.8H79.28v41.44C79.28,126.44,74.64,131.08,68.92,131.08L68.92,131.08z"/>
	</g>
</g>
</svg>
