<?xml version="1.0" encoding="utf-8"?>
<!-- Generator: Adobe Illustrator 25.3.0, SVG Export Plug-In . SVG Version: 6.00 Build 0)  -->
<svg version="1.1" id="Capa_1" xmlns="http://www.w3.org/2000/svg" xmlns:xlink="http://www.w3.org/1999/xlink" x="0px" y="0px"
	 viewBox="0 0 349 190" style="enable-background:new 0 0 349 190;" xml:space="preserve">
<style type="text/css">
	.st0{fill:#EFEFED;}
</style>
<g>
	<g>
		<path class="st0" d="M197.56,24.48v41.57c0,9.67-7.87,17.54-17.54,17.54h-41.57V24.48H197.56 M203.47,18.57h-70.93v70.93h47.48
			c12.95,0,23.45-10.5,23.45-23.45V18.57L203.47,18.57z"/>
		<path class="st0" d="M150.27,71.77V36.31h41.38v0c0,3.26-2.65,5.91-5.91,5.91h-11.82v23.64c0,3.26-2.65,5.91-5.91,5.91l0,0V42.22
			h-11.82v23.64C156.18,69.13,153.53,71.77,150.27,71.77L150.27,71.77z"/>
	</g>
	<g>
		<g>
			<path class="st0" d="M45.82,147.69v-4.39c-1.87,3.36-5.28,4.74-8.68,4.79c-6.51,0-11-4-11-10.76v-14.06h2.42v14.01
				c0,5.53,3.4,8.49,8.68,8.44c5.03-0.05,8.54-3.85,8.54-8.88v-13.57h2.42v24.42H45.82z"/>
			<path class="st0" d="M55.19,123.31v4.34c1.87-3.36,5.28-4.74,8.68-4.79c6.51,0,11,4,11,10.76v14.06h-2.42v-14.01
				c0-5.53-3.4-8.49-8.68-8.44c-5.03,0.05-8.54,3.85-8.54,8.88v13.57h-2.42v-24.37H55.19z"/>
			<path class="st0" d="M81.88,113.15v34.54h-2.42v-34.54H81.88z"/>
			<path class="st0" d="M90.12,115.37c0,2.57-3.9,2.57-3.9,0C86.22,112.8,90.12,112.8,90.12,115.37z M86.91,123.21v24.47h2.42
				v-24.47H86.91z"/>
			<path class="st0" d="M130.62,147.69v-14.6c0-4.69-3.16-7.99-7.79-7.99c-4.64,0-7.85,3.45-7.85,8.14v14.45h-2.42v-14.45
				c0-4.69-3.21-8.09-7.85-8.09c-4.64,0-7.79,3.4-7.79,8.09v14.45H94.5v-24.37h2.27l0.05,4.04c1.68-3.21,4.79-4.54,7.94-4.54
				c3.7,0,7.6,1.68,9.03,6.02c1.48-4,5.28-6.02,9.03-6.02c5.97,0,10.21,4.19,10.21,10.26v14.6H130.62z"/>
			<path class="st0" d="M141.32,115.37c0,2.57-3.9,2.57-3.9,0C137.42,112.8,141.32,112.8,141.32,115.37z M138.11,123.21v24.47h2.42
				v-24.47H138.11z"/>
			<path class="st0" d="M151.28,115.96v7.35h8.29v2.02h-8.29v14.85c0,3.31,0.69,5.62,4.49,5.62c1.18,0,2.52-0.39,3.75-0.99
				l0.84,1.97c-1.53,0.74-3.06,1.23-4.59,1.23c-5.18,0-6.86-3.06-6.86-7.84v-14.85h-5.18v-2.02h5.18v-7.1L151.28,115.96z"/>
			<path class="st0" d="M162.04,135.5c0-7.3,5.53-12.58,12.38-12.58c6.86,0,12.98,4.19,12.04,13.72H164.5
				c0.49,5.72,4.88,9.03,9.92,9.03c3.21,0,6.96-1.28,8.78-3.7l1.73,1.38c-2.37,3.11-6.61,4.69-10.51,4.69
				C167.56,148.03,162.04,143.24,162.04,135.5z M184.29,134.51c-0.05-6.02-4-9.37-9.87-9.37c-5.03,0-9.37,3.4-9.92,9.37H184.29z"/>
			<path class="st0" d="M214.38,113.15v34.54h-2.37v-5.38c-2.02,3.7-6.02,5.77-10.16,5.77c-6.81,0-12.19-4.49-12.19-12.58
				c0-8.04,5.43-12.58,12.24-12.58c4.19,0,8.14,1.78,10.11,5.72v-15.49H214.38z M192.03,135.5c0,6.76,4.49,10.21,9.97,10.21
				c5.72,0,9.97-4.19,9.97-10.26c0-6.07-4.34-10.21-9.97-10.21C196.52,125.24,192.03,128.64,192.03,135.5z"/>
		</g>
		<g>
			<path class="st0" d="M227.98,116.51v6.91h6.71v5.18h-6.76v10.51c0,2.32,1.28,3.45,3.16,3.45c0.94,0,2.02-0.3,2.91-0.74l1.68,5.13
				c-1.73,0.69-3.16,0.99-4.98,1.04c-5.28,0.2-8.73-2.81-8.73-8.88v-10.51h-4.54v-5.18h4.54v-6.27L227.98,116.51z"/>
			<path class="st0" d="M242.58,137.67c0.39,3.01,3.01,5.18,7.25,5.18c2.22,0,5.13-0.84,6.51-2.27l3.85,3.8
				c-2.57,2.66-6.76,3.95-10.46,3.95c-8.39,0-13.37-5.18-13.37-12.98c0-7.4,5.03-12.73,12.93-12.73c8.14,0,13.22,5.03,12.28,15.05
				H242.58z M255.8,132.69c-0.39-3.16-2.86-4.74-6.32-4.74c-3.26,0-5.92,1.58-6.81,4.74H255.8z"/>
			<path class="st0" d="M285.35,144.58c-2.81,2.76-5.77,3.85-9.37,3.85c-7.05,0-12.93-4.24-12.93-12.88s5.87-12.88,12.93-12.88
				c3.45,0,6.12,0.99,8.78,3.6l-3.8,4c-1.43-1.28-3.21-1.92-4.88-1.92c-4.04,0-7,2.96-7,7.2c0,4.64,3.16,7.1,6.91,7.1
				c1.92,0,3.85-0.54,5.33-2.02L285.35,144.58z"/>
			<path class="st0" d="M292.3,113.15v13.52c2.17-2.81,4.83-3.65,7.6-3.65c6.91,0,9.96,4.69,9.96,11.84v12.83h-6.02v-12.78
				c0-4.44-2.32-6.32-5.53-6.32c-3.55,0-6.02,3.01-6.02,6.66v12.43h-6.02v-34.54H292.3z"/>
		</g>
	</g>
</g>
</svg>
